name Walk1.mot
datacolumns 19
datarows 25
range 2.47100000 2.49500000
endheader

                time	   L_ground_force_vx	   L_ground_force_vy	   L_ground_force_vz	   L_ground_force_px	   L_ground_force_py	   L_ground_force_pz	   R_ground_force_vx	   R_ground_force_vy	   R_ground_force_vz	   R_ground_force_px	   R_ground_force_py	   R_ground_force_pz	   L_ground_torque_x	   L_ground_torque_y	   L_ground_torque_z	   R_ground_torque_x	   R_ground_torque_y	   R_ground_torque_z	
          2.47100000	          0.00000000	         -0.00000000	         -0.00000000	          0.00000000	          0.00000000	          0.00000000	         26.62293874	        202.36211180	          0.22465598	          0.36746734	          0.00000000	          0.13616345	          0.00000000	         -0.00000000	          0.00000000	          0.00000000	         -5.92683986	          0.00000000	
          2.47200000	          0.00000000	         -0.00000000	         -0.00000000	          0.00000000	          0.00000000	          0.00000000	         25.51374003	        195.48375519	          0.41065676	          0.36794632	          0.00000000	          0.13562543	          0.00000000	         -0.00000000	          0.00000000	          0.00000000	         -5.76508697	          0.00000000	
          2.47300000	          0.00000000	         -0.00000000	         -0.00000000	          0.00000000	          0.00000000	          0.00000000	         24.40679252	        188.70875819	          0.58578644	          0.36836143	          0.00000000	          0.13505548	          0.00000000	         -0.00000000	          0.00000000	          0.00000000	         -5.60209042	          0.00000000	
          2.47400000	          0.00000000	         -0.00000000	         -0.00000000	          0.00000000	          0.00000000	          0.00000000	         23.30322416	        182.04079141	          0.75037468	          0.36870622	          0.00000000	          0.13445222	          0.00000000	         -0.00000000	          0.00000000	          0.00000000	         -5.43801333	          0.00000000	
          2.47500000	          0.00000000	          0.00000000	         -0.00000000	          0.00000000	          0.00000000	          0.00000000	         22.20420454	        175.48337819	          0.90475050	          0.36897394	          0.00000000	          0.13381424	          0.00000000	         -0.00000000	          0.00000000	          0.00000000	         -5.27302780	          0.00000000	
          2.47600000	          0.00000000	          0.00000000	         -0.00000000	          0.00000000	          0.00000000	          0.00000000	         21.11094263	        169.03987919	          1.04924152	          0.36915759	          0.00000000	          0.13314013	          0.00000000	         -0.00000000	          0.00000000	          0.00000000	         -5.10731452	          0.00000000	
          2.47700000	          0.00000000	          0.00000000	         -0.00000000	          0.00000000	          0.00000000	          0.00000000	         20.02468349	        162.71347752	          1.18417374	          0.36924988	          0.00000000	          0.13242846	          0.00000000	         -0.00000000	          0.00000000	          0.00000000	         -4.94106226	          0.00000000	
          2.47800000	          0.00000000	          0.00000000	         -0.00000000	          0.00000000	          0.00000000	          0.00000000	         18.94670400	        156.50716457	          1.30987125	          0.36924328	          0.00000000	          0.13167781	          0.00000000	         -0.00000000	          0.00000000	          0.00000000	         -4.77446731	          0.00000000	
          2.47900000	          0.00000000	          0.00000000	         -0.00000000	          0.00000000	          0.00000000	          0.00000000	         17.87830792	        150.42372649	          1.42665589	          0.36913000	          0.00000000	          0.13088678	          0.00000000	         -0.00000000	          0.00000000	          0.00000000	         -4.60773271	          0.00000000	
          2.48000000	          0.00000000	          0.00000000	         -0.00000000	          0.00000000	          0.00000000	          0.00000000	         16.82082064	        144.46573124	          1.53484629	          0.36890202	          0.00000000	          0.13005396	          0.00000000	         -0.00000000	          0.00000000	          0.00000000	         -4.44106755	          0.00000000	
          2.48100000	          0.00000000	          0.00000000	         -0.00000000	          0.00000000	          0.00000000	          0.00000000	         15.77558398	        138.63551630	          1.63475626	          0.36855109	          0.00000000	          0.12917795	          0.00000000	         -0.00000000	          0.00000000	          0.00000000	         -4.27468621	          0.00000000	
          2.48200000	          0.00000000	          0.00000000	         -0.00000000	          0.00000000	          0.00000000	          0.00000000	         14.74395127	        132.93517734	          1.72669287	          0.36806876	          0.00000000	          0.12825737	          0.00000000	         -0.00000000	          0.00000000	          0.00000000	         -4.10880771	          0.00000000	
          2.48300000	          0.00000000	          0.00000000	         -0.00000000	          0.00000000	          0.00000000	          0.00000000	         13.72728257	        127.36655794	          1.81095444	          0.36744638	          0.00000000	          0.12729086	          0.00000000	         -0.00000000	          0.00000000	          0.00000000	         -3.94365494	          0.00000000	
          2.48400000	          0.00000000	          0.00000000	         -0.00000000	          0.00000000	          0.00000000	          0.00000000	         12.72693997	        121.93124099	          1.88782899	          0.36667512	          0.00000000	          0.12627708	          0.00000000	         -0.00000000	          0.00000000	          0.00000000	         -3.77945395	          0.00000000	
          2.48500000	          0.00000000	          0.00000000	         -0.00000000	          0.00000000	          0.00000000	          0.00000000	         11.74428250	        116.63054196	          1.95759315	          0.36574600	          0.00000000	          0.12521472	          0.00000000	         -0.00000000	          0.00000000	          0.00000000	         -3.61643306	          0.00000000	
          2.48600000	          0.00000000	          0.00000000	         -0.00000000	          0.00000000	          0.00000000	          0.00000000	         10.78066061	        111.46550399	          2.02051154	          0.36464994	          0.00000000	          0.12410251	          0.00000000	         -0.00000000	          0.00000000	          0.00000000	         -3.45482188	          0.00000000	
          2.48700000	          0.00000000	          0.00000000	         -0.00000000	          0.00000000	          0.00000000	          0.00000000	          9.83740997	        106.43689481	          2.07683645	          0.36337778	          0.00000000	          0.12293921	          0.00000000	         -0.00000000	          0.00000000	          0.00000000	         -3.29485023	          0.00000000	
          2.48800000	          0.00000000	          0.00000000	         -0.00000000	          0.00000000	          0.00000000	          0.00000000	          8.91584459	        101.54520512	          2.12680752	          0.36192037	          0.00000000	          0.12172361	          0.00000000	         -0.00000000	          0.00000000	          0.00000000	         -3.13674680	          0.00000000	
          2.48900000	          0.00000000	          0.00000000	         -0.00000000	          0.00000000	          0.00000000	          0.00000000	          8.01724962	         96.79064867	          2.17065146	          0.36026861	          0.00000000	          0.12045455	          0.00000000	         -0.00000000	          0.00000000	          0.00000000	         -2.98073761	          0.00000000	
          2.49000000	          0.00000000	          0.00000000	         -0.00000000	          0.00000000	          0.00000000	          0.00000000	          7.14287373	         92.17316437	          2.20858163	          0.35841350	          0.00000000	          0.11913088	          0.00000000	         -0.00000000	          0.00000000	          0.00000000	         -2.82704434	          0.00000000	
          2.49100000	          0.00000000	          0.00000000	         -0.00000000	          0.00000000	          0.00000000	          0.00000000	          6.29392148	         87.69242100	          2.24079790	          0.35634622	          0.00000000	          0.11775153	          0.00000000	         -0.00000000	          0.00000000	          0.00000000	         -2.67588281	          0.00000000	
          2.49200000	          0.00000000	          0.00000000	         -0.00000000	          0.00000000	          0.00000000	          0.00000000	          5.47154579	         83.34782488	          2.26748674	          0.35405816	          0.00000000	          0.11631543	          0.00000000	         -0.00000000	          0.00000000	          0.00000000	         -2.52746161	          0.00000000	
          2.49300000	          0.00000000	          0.00000000	         -0.00000000	          0.00000000	          0.00000000	          0.00000000	          4.67684060	         79.13852990	          2.28882174	          0.35154098	          0.00000000	          0.11482159	          0.00000000	         -0.00000000	          0.00000000	          0.00000000	         -2.38198108	          0.00000000	
          2.49400000	          0.00000000	          0.00000000	         -0.00000000	          0.00000000	          0.00000000	          0.00000000	          3.91083425	         75.06344953	          2.30496430	          0.34878664	          0.00000000	          0.11326913	          0.00000000	         -0.00000000	          0.00000000	          0.00000000	         -2.23963243	          0.00000000	
          2.49500000	          0.00000000	          0.00000000	          0.00000000	          0.00000000	          0.00000000	          0.00000000	          3.17448319	         71.12127035	          2.31606450	          0.34578747	          0.00000000	          0.11165722	          0.00000000	         -0.00000000	          0.00000000	          0.00000000	         -2.10059703	          0.00000000	
